<?xml version="1.0" encoding="UTF-8"?>
<svg xmlns="http://www.w3.org/2000/svg" id="Outline" viewBox="0 0 512 512" width="512" height="512"><path d="M126.555,341.405C124.178,365.043,120,410.759,120,440c0,37.159,13.458,56,40,56s40-18.841,40-56c0-29.241-4.178-74.957-6.555-98.6C245.6,332.6,272,301.3,272,248c0-64.056-30.842-219-32.155-225.569A8,8,0,0,0,232,16H88a8,8,0,0,0-7.845,6.431C78.842,29,48,183.944,48,248,48,301.3,74.4,332.6,126.555,341.405ZM184,440c0,16.173-2.716,27.543-8.074,33.793C172.3,478.028,167.236,480,160,480s-12.3-1.972-15.926-6.207C138.716,467.543,136,456.173,136,440c0-28.417,4.088-73.229,6.442-96.676,5.613.436,11.449.676,17.558.676s11.945-.24,17.558-.676C179.912,366.771,184,411.583,184,440ZM120,32h80V224a40,40,0,0,1-80,0ZM94.583,32H104V224a56,56,0,0,0,112,0V32h9.417C231.334,62.453,256,192.73,256,248c0,54.58-30.5,80-96,80s-96-25.42-96-80C64,192.736,88.668,62.443,94.583,32Z"/><path d="M376,496a32.036,32.036,0,0,0,32-32V329.976a88,88,0,1,0-64,0V464A32.036,32.036,0,0,0,376,496Zm16-32a16,16,0,0,1-32,0V334.538a88.282,88.282,0,0,0,32,0ZM304,248a72,72,0,1,1,72,72A72.081,72.081,0,0,1,304,248Z"/><path d="M384,296a8,8,0,0,0-8-8,40,40,0,0,1,0-80,8,8,0,0,0,0-16,56,56,0,0,0,0,112A8,8,0,0,0,384,296Z"/></svg>
